<?xml version="1.0" encoding="UTF-8" standalone="no"?>
<svg
   version="1.1"
   width="1044"
   height="592"
   id="svg532"
   sodipodi:docname="vector-cloud-png-2.svg"
   xmlns:inkscape="http://www.inkscape.org/namespaces/inkscape"
   xmlns:sodipodi="http://sodipodi.sourceforge.net/DTD/sodipodi-0.dtd"
   xmlns="http://www.w3.org/2000/svg"
   xmlns:svg="http://www.w3.org/2000/svg">
  <defs
     id="defs536" />
  <sodipodi:namedview
     id="namedview534"
     pagecolor="#ffffff"
     bordercolor="#000000"
     borderopacity="0.25"
     inkscape:showpageshadow="2"
     inkscape:pageopacity="0.0"
     inkscape:pagecheckerboard="0"
     inkscape:deskcolor="#d1d1d1"
     showgrid="false" />
  <path
     d="m 673,102.625 c 4.58161,3.89368 8.82872,8.04994 13,12.375 0.825,0.78375 1.65,1.5675 2.5,2.375 6.86013,7.20314 12.05543,14.81046 16.5,23.6875 0.50837,0.99354 1.01675,1.98709 1.54053,3.01074 3.48856,6.8625 6.84739,13.78542 10.04931,20.78638 1.32017,2.88423 2.64511,5.4928 4.41016,8.14038 1.10215,-0.39832 2.2043,-0.79664 3.33984,-1.20703 28.17872,-9.94875 57.21149,-11.55904 84.9878,1.2832 C 837.7894,186.89575 855.52593,205.75847 869,234 c 0.42668,0.88687 0.85336,1.77375 1.29297,2.6875 6.40083,14.51835 9.75998,38.15366 4.70703,53.3125 0.76312,0.20625 1.52625,0.4125 2.3125,0.625 23.02801,8.58672 40.76295,27.93045 50.90527,49.85181 11.34228,25.48094 11.03768,52.03014 1.17676,77.85522 -10.33472,25.55473 -29.96775,44.08684 -55.08594,55.0625 C 850.12445,483.03929 822.20357,483.46114 798,474 c -1.05316,-0.4009 -2.10633,-0.8018 -3.19141,-1.21484 C 792.52181,471.89143 790.25506,470.97033 788,470 c -0.21914,0.72703 -0.43828,1.45406 -0.66406,2.20312 -3.16606,10.03871 -7.10099,19.48511 -13.72656,27.75 -1.17063,1.48885 -2.27772,3.02832 -3.34376,4.59375 -14.66227,21.44813 -37.18196,32.75274 -62.25,37.53516 -25.84357,4.32534 -51.71275,-1.46199 -73.43359,-16.10937 C 626.17877,519.55262 618.7929,512.09154 612,504 c -0.63937,0.68063 -1.27875,1.36125 -1.9375,2.0625 C 588.65137,527.29471 557.80067,538.53618 528,539 494.04338,538.49025 465.37427,525.52933 440.875,502.1875 433.8441,494.94049 428.063,486.6969 423.38672,477.76562 422.9291,477.18297 422.47148,476.60031 422,476 c -1.32,0 -2.64,0 -4,0 0,0.66 0,1.32 0,2 -18.65856,16.59535 -47.33929,24.58893 -71.89453,23.16406 -22.84995,-1.78051 -45.03549,-9.15163 -62.10938,-25.02734 -1.97864,-1.42904 -1.97864,-1.42904 -4.375,-0.5586 -2.94848,1.59948 -5.74671,3.34221 -8.55859,5.17188 -25.30433,15.70491 -57.7809,20.55218 -86.81787,13.82324 C 164.10304,489.4294 142.03577,477.63149 128,462 c 0,-0.66 0,-1.32 0,-2 -0.66,0 -1.32,0 -2,0 -1.64195,-1.83728 -3.1402,-3.66553 -4.625,-5.625 -0.66661,-0.87809 -0.66661,-0.87809 -1.34668,-1.77393 C 108.63608,437.27415 101.97695,420.57951 98,402 c -0.19465,-0.89977 -0.3893,-1.79953 -0.58984,-2.72656 -3.67882,-29.36049 3.07273,-59.99837 20.73437,-83.96485 C 123.04372,309.21297 128.32948,303.38699 134,298 c 0.60844,-0.59168 1.21687,-1.18336 1.84375,-1.79297 C 141.99562,290.44523 148.66497,286.12024 156,282 c 1.00418,-0.59813 2.00836,-1.19625 3.04297,-1.8125 8.82417,-4.72309 18.19524,-6.94125 27.89453,-9.125 0.67165,-0.15574 1.3433,-0.31149 2.03531,-0.47195 C 199.09156,268.27696 208.63333,267.61975 219,268 c 0.28875,-1.17563 0.5775,-2.35125 0.875,-3.5625 3.19372,-9.6733 10.33085,-18.9409 17.125,-26.4375 0.66,0 1.32,0 2,0 0,-0.66 0,-1.32 0,-2 16.09092,-14.06372 36.79529,-19.84337 57.88281,-19.27344 2.51078,0.22025 4.71502,0.54442 7.11719,1.27344 0.11086,-0.69867 0.22172,-1.39734 0.33594,-2.11719 C 306.57633,206.15687 312.33885,197.09775 318,189 c 0.57105,-0.81984 1.14211,-1.63969 1.73047,-2.48438 5.30535,-7.10396 11.78481,-12.57813 18.6123,-18.15087 1.45064,-1.19463 2.87292,-2.42352 4.29004,-3.65772 C 363.36867,147.01654 391.72524,143.3523 418,145 c 5.52823,0.65619 10.74986,2.19152 16,4 0.83354,0.2786 1.66708,0.5572 2.52588,0.84424 7.55641,2.53422 15.10105,5.12244 22.47412,8.15576 0.47309,-0.99258 0.94617,-1.98516 1.43359,-3.00781 16.10037,-33.29886 42.01694,-61.22588 77.68262,-73.734377 C 584.34226,65.701526 634.45172,71.786379 673,102.625 Z"
     fill="#fefefc"
     id="path310" />
  <path
     d="m 899,304 c 19.09976,12.80256 31.28823,34.82261 36,57 4.94651,26.24626 -0.44466,52.85448 -14.875,75.375 C 902.521,461.40728 877.65133,474.80447 848,480 c -16.56934,2.76908 -34.46761,0.0716 -50,-6 -1.05316,-0.4009 -2.10633,-0.8018 -3.19141,-1.21484 C 792.52181,471.89143 790.25506,470.97033 788,470 c -0.32871,1.09055 -0.32871,1.09055 -0.66406,2.20312 -3.16606,10.03871 -7.10099,19.48511 -13.72657,27.75 -1.17062,1.48885 -2.27771,3.02832 -3.34374,4.59375 -14.66228,21.44813 -37.18197,32.75274 -62.25,37.53516 -25.84358,4.32534 -51.71276,-1.46199 -73.4336,-16.10937 C 626.17877,519.55262 618.7929,512.09154 612,504 c -0.63937,0.68062 -1.27875,1.36125 -1.9375,2.0625 C 588.65137,527.29471 557.80067,538.53618 528,539 494.04338,538.49025 465.37427,525.52933 440.875,502.1875 433.8441,494.94049 428.063,486.6969 423.38672,477.76562 422.9291,477.18297 422.47148,476.60031 422,476 c -1.32,0 -2.64,0 -4,0 0,0.66 0,1.32 0,2 -18.65856,16.59535 -47.33929,24.58893 -71.89453,23.16406 -22.84995,-1.78051 -45.03549,-9.15163 -62.10938,-25.02734 -1.97864,-1.42904 -1.97864,-1.42904 -4.375,-0.5586 -2.94848,1.59948 -5.74671,3.34221 -8.55859,5.17188 -25.30433,15.70491 -57.7809,20.55218 -86.81787,13.82324 C 164.10304,489.4294 142.03577,477.63149 128,462 c 0,-0.66 0,-1.32 0,-2 -0.66,0 -1.32,0 -2,0 -1.64195,-1.83728 -3.1402,-3.66553 -4.625,-5.625 -0.66661,-0.87809 -0.66661,-0.87809 -1.34668,-1.77393 C 113.14121,443.33527 102,428.13556 102,416 c 3.86933,0.57323 6.15222,2.38954 9,5 0,0.66 0,1.32 0,2 0.53883,0.24363 1.07766,0.48727 1.63281,0.73828 2.94955,1.57212 5.53528,3.48823 8.24219,5.44922 15.24327,10.68689 32.37152,17.42282 51.125,17.8125 1.13695,0.0619 2.27391,0.12375 3.44531,0.1875 C 193.72745,447.78815 211.81128,444.61334 228,436 c 1.61068,-0.83725 1.61068,-0.83725 3.25391,-1.69141 12.87133,-7.08498 23.63598,-16.7572 32.26562,-28.58593 0.48856,-0.56848 0.97711,-1.13696 1.48047,-1.72266 0.66,0 1.32,0 2,0 1.01957,1.52325 1.96315,3.09743 2.875,4.6875 14.39929,23.16408 39.07375,37.9962 65.25,44.1875 27.94767,4.95275 54.3947,-1.36104 77.91016,-16.73828 C 416.02995,434.3269 416.02995,434.3269 417,432 c -1.32258,-0.17016 -1.32258,-0.17016 -2.67187,-0.34375 -11.77907,-2.32263 -22.25509,-11.88379 -29.00782,-21.47266 C 382.79632,406.0093 380.50876,401.64639 379,397 c 0.33,-0.99 0.66,-1.98 1,-3 0.33,0.99 0.66,1.98 1,3 1.31253,0.70675 2.65279,1.36185 4,2 1.01063,0.76312 2.02125,1.52625 3.0625,2.3125 15.52944,11.10176 39.36232,16.06429 58.14404,13.37109 8.58672,-1.57337 16.61963,-4.09939 24.5708,-7.73046 C 473,406 473,406 475,406 c -1.24196,3.43928 -2.5574,6.25208 -5,9 -0.66,0 -1.32,0 -2,0 -0.24105,0.57879 -0.48211,1.15758 -0.73047,1.75391 C 462.46758,425.24966 451.94046,429.4802 443,432 c -1.32,0 -2.64,0 -4,0 6.33909,14.33186 17.88009,27.88895 31.41797,35.87891 0.52207,0.36996 1.04414,0.73992 1.58203,1.12109 0,0.66 0,1.32 0,2 0.68063,0.2475 1.36125,0.495 2.0625,0.75 2.9375,1.25 2.9375,1.25 6.14063,3.13672 3.70066,2.13419 7.47871,3.70949 11.48437,5.17578 0.6948,0.25677 1.38961,0.51353 2.10547,0.77808 26.25452,9.49856 52.39842,7.55968 77.83203,-3.40308 8.31046,-3.93653 15.20453,-8.7681 22.375,-14.4375 3,-2 3,-2 4.90234,-1.82422 2.55649,1.0045 4.45832,2.3685 6.66016,4.01172 19.62008,13.98574 44.83466,20.80327 68.90283,17.47119 13.19723,-2.21281 25.09582,-6.18237 36.94214,-12.3728 C 715.80284,468 715.80284,468 718,468 c 0,-0.66 0,-1.32 0,-2 1.33375,-0.91257 2.67399,-1.81635 4.03516,-2.6875 C 730.02002,457.97867 740.86486,450.40542 744,441 c -1.05187,-0.0206 -2.10375,-0.0412 -3.1875,-0.0625 -9.60123,-1.19376 -21.22348,-8.38119 -27.40625,-15.86719 C 712.21342,423.42023 711.09756,421.71493 710,420 c 2,-1 2,-1 4.75781,-0.25781 2.22918,0.74995 4.45835,1.49995 6.6875,2.25 7.82331,2.21803 15.48442,2.13596 23.55469,2.07031 1.0609,-0.005 2.1218,-0.009 3.21484,-0.0137 2.59512,-0.0117 5.19011,-0.0281 7.78516,-0.0488 0.33,-1.65 0.66,-3.3 1,-5 0.77344,0.10699 1.54688,0.21398 2.34375,0.32422 6.82131,0.78513 11.56051,0.85769 17.65625,-2.32422 1.2433,-0.60521 1.2433,-0.60521 2.51172,-1.22266 C 786.958,411.96392 793.42817,407.12662 800,402 c 1.33094,-1.00319 2.66326,-2.00456 4,-3 -1.18565,10.93704 -7.01146,19.08314 -13,28 11.29852,-0.37532 21.99509,-1.24008 33,-4 0.64147,-0.15952 1.28294,-0.31904 1.94385,-0.4834 C 841.18355,418.60437 854.12469,411.29638 866,401 c 0.58523,-0.44215 1.17047,-0.8843 1.77344,-1.33984 C 877.43587,392.19785 884.78008,380.85872 890,370 c 0.43828,-0.86883 0.87656,-1.73766 1.32812,-2.63281 C 894.819,360.15412 896.99078,352.7406 899,345 c 0.34225,-1.15242 0.34225,-1.15242 0.69141,-2.32813 C 903.08103,330.25115 900.86308,316.50926 899,304 Z"
     fill="#e7e7e7"
     id="path312" />
  <path
     d="m 696,288 c 2.11118,6.33354 -2.5078,14.24233 -5.25,20.0625 -4.79932,9.10266 -12.71022,22.33961 -23.04688,25.67969 -0.56203,0.0851 -1.12406,0.17015 -1.70312,0.25781 0,0.66 0,1.32 0,2 -18.36577,10.21596 -37.14759,14.2898 -57.91943,8.46143 C 592.15555,339.5707 577.40928,330.05399 568,316 c 0,-0.66 0,-1.32 0,-2 1.06154,0.43313 1.06154,0.43313 2.14453,0.875 2.82812,1.11423 5.66671,2.14193 8.54297,3.125 0.95262,0.33 1.90523,0.66 2.88672,1 9.5553,2.78923 18.6102,3.36689 28.55078,3.3125 0.68853,-0.002 1.37706,-0.004 2.08646,-0.005 10.25111,-0.0458 19.85821,-0.54485 29.78854,-3.307 0.94939,-0.24146 0.94939,-0.24146 1.91797,-0.48779 C 664.24943,313.3145 680.73191,302.14997 696,288 Z"
     fill="#e8e8e8"
     id="path314" />
  <path
     d="m 932,396 c 0.99,0.33 1.98,0.66 3,1 -0.66,3.3 -1.32,6.6 -2,10 -0.66,-0.33 -1.32,-0.66 -2,-1 -0.48438,-1.77734 -0.48438,-1.77734 -0.75,-3.9375 -0.098,-0.71027 -0.19594,-1.42055 -0.29688,-2.15234 C 930,398 930,398 932,396 Z"
     fill="#d6e2e4"
     id="path316" />
  <path
     d="m 871,469 c 2.4375,0.375 2.4375,0.375 5,1 0.33,0.66 0.66,1.32 1,2 -6.625,3 -6.625,3 -10,3 0,-0.66 0,-1.32 0,-2 0.99,0 1.98,0 3,0 0.33,-1.32 0.66,-2.64 1,-4 z"
     fill="#d4e1e5"
     id="path318" />
  <path
     d="m 376,494 c 2.64,0 5.28,0 8,0 0.33,0.66 0.66,1.32 1,2 -3.3,0.66 -6.6,1.32 -10,2 -0.33,-0.66 -0.66,-1.32 -1,-2 0.66,0 1.32,0 2,0 0,-0.66 0,-1.32 0,-2 z"
     fill="#cfdfe3"
     id="path320" />
  <path
     d="m 742.16406,524.80469 c 1.21816,0.0348 1.21816,0.0348 2.46094,0.0703 1.2259,0.0271 1.2259,0.0271 2.47656,0.0547 0.93973,0.0348 0.93973,0.0348 1.89844,0.0703 -4.75,3.875 -4.75,3.875 -7,5 0,-0.66 0,-1.32 0,-2 -1.32,-0.33 -2.64,-0.66 -4,-1 2,-2 2,-2 4.16406,-2.19531 z"
     fill="#d0e1e2"
     id="path322" />
  <path
     d="m 915,320 c 1.65,1.65 3.3,3.3 5,5 -0.33,0.99 -0.66,1.98 -1,3 -0.99,0.33 -1.98,0.66 -3,1 -2.125,-6.75 -2.125,-6.75 -1,-9 z"
     fill="#d1dfe3"
     id="path324" />
  <path
     d="m 503,533 c 2.97,0.495 2.97,0.495 6,1 0,0.99 0,1.98 0,3 -2.97,-0.33 -5.94,-0.66 -9,-1 0.99,-0.33 1.98,-0.66 3,-1 0,-0.66 0,-1.32 0,-2 z"
     fill="#cddee4"
     id="path328" />
  <path
     d="m 167,486 c 1.94531,0.24219 1.94531,0.24219 4.125,0.875 0.72445,0.20367 1.44891,0.40734 2.19531,0.61719 0.5543,0.16758 1.1086,0.33515 1.67969,0.50781 0,0.99 0,1.98 0,3 -3.3,-0.99 -6.6,-1.98 -10,-3 0.66,-0.66 1.32,-1.32 2,-2 z"
     fill="#cddfe5"
     id="path330" />
  <path
     d="m 781,481 c 0.66,0.99 1.32,1.98 2,3 -0.99,1.98 -1.98,3.96 -3,6 -0.66,-0.33 -1.32,-0.66 -2,-1 1.875,-6.875 1.875,-6.875 3,-8 z"
     fill="#d4e2e4"
     id="path332" />
  <path
     d="m 282,469 c 1.32,0.66 2.64,1.32 4,2 -0.33,1.65 -0.66,3.3 -1,5 -0.99,-0.33 -1.98,-0.66 -3,-1 0.33,-0.99 0.66,-1.98 1,-3 -0.66,0 -1.32,0 -2,0 0.33,-0.99 0.66,-1.98 1,-3 z"
     fill="#dbe3e4"
     id="path334" />
  <path
     d="m 461,514 c 1.5,1.375 1.5,1.375 3,3 0,0.66 0,1.32 0,2 0.99,-0.33 1.98,-0.66 3,-1 -0.33,0.99 -0.66,1.98 -1,3 -3.465,-1.98 -3.465,-1.98 -7,-4 0.66,-0.99 1.32,-1.98 2,-3 z"
     fill="#cbdde3"
     id="path336" />
  <path
     d="m 276,473 c 1.32,0.66 2.64,1.32 4,2 -3.75,3 -3.75,3 -6,3 -0.33,-0.99 -0.66,-1.98 -1,-3 0.99,-0.66 1.98,-1.32 3,-2 z"
     fill="#c6dbe1"
     id="path338" />
  <path
     d="m 539,83 c -1.1875,1.5625 -1.1875,1.5625 -3,3 -2.6875,-0.3125 -2.6875,-0.3125 -5,-1 2.85933,-2.85933 4.13744,-3.287521 8,-2 z"
     fill="#ddf1f4"
     id="path340" />
  <path
     d="m 884,463 c 0.99,0.33 1.98,0.66 3,1 0,0.99 0,1.98 0,3 -1.98,0.66 -3.96,1.32 -6,2 0,-0.66 0,-1.32 0,-2 0.99,0 1.98,0 3,0 0,-1.32 0,-2.64 0,-4 z"
     fill="#cedfe2"
     id="path342" />
</svg>
