<?xml version="1.0" encoding="UTF-8"?>
<svg version="1.1" xmlns="http://www.w3.org/2000/svg" width="1044" height="592">
<path d="M0 0 C4.58161479 3.89368464 8.82872403 8.04994427 13 12.375 C13.825 13.15875 14.65 13.9425 15.5 14.75 C22.36013165 21.95313823 27.55543044 29.56045906 32 38.4375 C32.50837402 39.43104492 33.01674805 40.42458984 33.54052734 41.44824219 C37.02909356 48.31074243 40.3879229 55.23365808 43.58984375 62.23461914 C44.91000949 65.11884689 46.23494573 67.7274186 48 70.375 C49.10214844 69.97667969 50.20429687 69.57835937 51.33984375 69.16796875 C79.51855931 59.2192209 108.55133277 57.60892855 136.32763672 70.45117188 C164.78939633 84.27075458 182.52592989 103.13347078 196 131.375 C196.42667969 132.261875 196.85335937 133.14875 197.29296875 134.0625 C203.69379737 148.58085457 207.05294813 172.21615561 202 187.375 C202.763125 187.58125 203.52625 187.7875 204.3125 188 C227.34050878 196.58671514 245.07545263 215.93045401 255.21777344 237.85180664 C266.56005219 263.33274532 266.25544602 289.88195128 256.39453125 315.70703125 C246.05981158 341.26175619 226.42677786 359.79386607 201.30859375 370.76953125 C177.124453 380.41429371 149.20356949 380.8361386 125 371.375 C123.94683594 370.97410156 122.89367187 370.57320313 121.80859375 370.16015625 C119.52181217 369.26643494 117.25506434 368.34532816 115 367.375 C114.78085937 368.10203125 114.56171875 368.8290625 114.3359375 369.578125 C111.16988362 379.61683241 107.23495104 389.06323118 100.609375 397.328125 C99.43875392 398.81697317 98.33165901 400.35643766 97.265625 401.921875 C82.6033492 423.36999746 60.08366165 434.67460828 35.015625 439.45703125 C9.17205381 443.78236749 -16.69713329 437.99503992 -38.41796875 423.34765625 C-46.82122656 416.92761813 -54.20710158 409.46654077 -61 401.375 C-61.639375 402.055625 -62.27875 402.73625 -62.9375 403.4375 C-84.34863154 424.66970843 -115.19932917 435.91117633 -145 436.375 C-178.95662485 435.86524514 -207.62572534 422.90432861 -232.125 399.5625 C-239.15589547 392.31549094 -244.93700086 384.07189925 -249.61328125 375.140625 C-250.07089844 374.55796875 -250.52851563 373.9753125 -251 373.375 C-252.32 373.375 -253.64 373.375 -255 373.375 C-255 374.035 -255 374.695 -255 375.375 C-273.65855944 391.97035334 -302.33929222 399.9639313 -326.89453125 398.5390625 C-349.74447921 396.75854707 -371.9300233 389.38743447 -389.00390625 373.51171875 C-390.98254632 372.08267846 -390.98254632 372.08267846 -393.37890625 372.953125 C-396.32739496 374.55260323 -399.12561597 376.29532515 -401.9375 378.125 C-427.2418342 393.82991158 -459.7184027 398.67717991 -488.75537109 391.94824219 C-508.89695898 386.80440399 -530.96422737 375.00648692 -545 359.375 C-545 358.715 -545 358.055 -545 357.375 C-545.66 357.375 -546.32 357.375 -547 357.375 C-548.64195107 355.5377239 -550.14019578 353.70947304 -551.625 351.75 C-552.29160645 350.87190674 -552.29160645 350.87190674 -552.97167969 349.97607422 C-564.36391818 334.64915063 -571.02304572 317.9545146 -575 299.375 C-575.19464844 298.47523438 -575.38929688 297.57546875 -575.58984375 296.6484375 C-579.26866374 267.28795031 -572.51710672 236.65007274 -554.85546875 212.68359375 C-549.95627877 206.58797 -544.67051783 200.76199193 -539 195.375 C-538.3915625 194.78332031 -537.783125 194.19164062 -537.15625 193.58203125 C-531.00438221 187.82022754 -524.33503011 183.49524341 -517 179.375 C-515.99582031 178.776875 -514.99164062 178.17875 -513.95703125 177.5625 C-505.1328629 172.8394087 -495.7617896 170.62125041 -486.0625 168.4375 C-485.39084808 168.28175507 -484.71919617 168.12601013 -484.02719116 167.96554565 C-473.90844076 165.65196163 -464.3666697 164.99475369 -454 165.375 C-453.71125 164.199375 -453.4225 163.02375 -453.125 161.8125 C-449.93127613 152.13920175 -442.7941535 142.87159988 -436 135.375 C-435.34 135.375 -434.68 135.375 -434 135.375 C-434 134.715 -434 134.055 -434 133.375 C-417.90907745 119.31128029 -397.20470619 113.53162956 -376.1171875 114.1015625 C-373.60640784 114.32180633 -371.40217139 114.64598281 -369 115.375 C-368.88914062 114.67632812 -368.77828125 113.97765625 -368.6640625 113.2578125 C-366.42366944 103.53187085 -360.66114951 94.47274705 -355 86.375 C-354.42894531 85.55515625 -353.85789062 84.7353125 -353.26953125 83.890625 C-347.96417886 76.78665635 -341.48472423 71.31249064 -334.65722656 65.73974609 C-333.20658514 64.54512536 -331.7843086 63.31623019 -330.3671875 62.08203125 C-309.63132991 44.39153888 -281.27475869 40.72729661 -255 42.375 C-249.47177292 43.03119245 -244.25013949 44.56652261 -239 46.375 C-238.16645996 46.65359863 -237.33291992 46.93219727 -236.47412109 47.21923828 C-228.91771444 49.75345711 -221.37307305 52.34167871 -214 55.375 C-213.52691406 54.38242188 -213.05382812 53.38984375 -212.56640625 52.3671875 C-196.46603895 19.06832528 -170.54946549 -8.85869 -134.88378906 -21.3671875 C-88.6577435 -36.92347439 -38.54827625 -30.838621 0 0 Z " fill="#FEFEFC" transform="translate(673,102.625)"/>
<path d="M0 0 C19.09975781 12.80256246 31.28823031 34.82261284 36 57 C40.94651388 83.24625672 35.55534349 109.85448381 21.125 132.375 C3.52099897 157.40727893 -21.34867317 170.80447305 -51 176 C-67.56934192 178.76907839 -85.46760516 176.07158958 -101 170 C-102.05316406 169.59910156 -103.10632813 169.19820312 -104.19140625 168.78515625 C-106.47818783 167.89143494 -108.74493566 166.97032816 -111 166 C-111.32871094 167.09054687 -111.32871094 167.09054687 -111.6640625 168.203125 C-114.83011638 178.24183241 -118.76504896 187.68823118 -125.390625 195.953125 C-126.56124608 197.44197317 -127.66834099 198.98143766 -128.734375 200.546875 C-143.3966508 221.99499746 -165.91633835 233.29960828 -190.984375 238.08203125 C-216.82794619 242.40736749 -242.69713329 236.62003992 -264.41796875 221.97265625 C-272.82122656 215.55261813 -280.20710158 208.09154077 -287 200 C-287.639375 200.680625 -288.27875 201.36125 -288.9375 202.0625 C-310.34863154 223.29470843 -341.19932917 234.53617633 -371 235 C-404.95662485 234.49024514 -433.62572534 221.52932861 -458.125 198.1875 C-465.15589547 190.94049094 -470.93700086 182.69689925 -475.61328125 173.765625 C-476.07089844 173.18296875 -476.52851563 172.6003125 -477 172 C-478.32 172 -479.64 172 -481 172 C-481 172.66 -481 173.32 -481 174 C-499.65855944 190.59535334 -528.33929222 198.5889313 -552.89453125 197.1640625 C-575.74447921 195.38354707 -597.9300233 188.01243447 -615.00390625 172.13671875 C-616.98254632 170.70767846 -616.98254632 170.70767846 -619.37890625 171.578125 C-622.32739496 173.17760323 -625.12561597 174.92032515 -627.9375 176.75 C-653.2418342 192.45491158 -685.7184027 197.30217991 -714.75537109 190.57324219 C-734.89695898 185.42940399 -756.96422737 173.63148692 -771 158 C-771 157.34 -771 156.68 -771 156 C-771.66 156 -772.32 156 -773 156 C-774.64195107 154.1627239 -776.14019578 152.33447304 -777.625 150.375 C-778.29160645 149.49690674 -778.29160645 149.49690674 -778.97167969 148.60107422 C-785.85879189 139.33527079 -797 124.13555691 -797 112 C-793.13066838 112.57323431 -790.84777943 114.38953552 -788 117 C-788 117.66 -788 118.32 -788 119 C-787.46117187 119.24363281 -786.92234375 119.48726563 -786.3671875 119.73828125 C-783.4176446 121.31039735 -780.83190615 123.22651188 -778.125 125.1875 C-762.88172826 135.87439415 -745.75348214 142.61031725 -727 143 C-725.86304688 143.061875 -724.72609375 143.12375 -723.5546875 143.1875 C-705.2725464 143.78814529 -687.18871571 140.61334368 -671 132 C-669.38931641 131.16275391 -669.38931641 131.16275391 -667.74609375 130.30859375 C-654.87475972 123.22360657 -644.11010926 113.55138546 -635.48046875 101.72265625 C-634.99191406 101.15417969 -634.50335937 100.58570313 -634 100 C-633.34 100 -632.68 100 -632 100 C-630.98043059 101.52324891 -630.03685356 103.09742701 -629.125 104.6875 C-614.72570825 127.85157803 -590.05125032 142.68369767 -563.875 148.875 C-535.92733418 153.8277509 -509.48030436 147.51395892 -485.96484375 132.13671875 C-482.97005266 130.32689688 -482.97005266 130.32689688 -482 128 C-483.32257813 127.82984375 -483.32257813 127.82984375 -484.671875 127.65625 C-496.45094121 125.33361723 -506.92696489 115.77245986 -513.6796875 106.18359375 C-516.2036801 102.0092983 -518.49123551 97.64639413 -520 93 C-519.67 92.01 -519.34 91.02 -519 90 C-518.67 90.99 -518.34 91.98 -518 93 C-516.68747118 93.70674629 -515.34721283 94.36184656 -514 95 C-512.989375 95.763125 -511.97875 96.52625 -510.9375 97.3125 C-495.40805675 108.41426132 -471.57518033 113.37679063 -452.79345703 110.68359375 C-444.2067407 109.11022167 -436.17383339 106.58419902 -428.22265625 102.953125 C-426 102 -426 102 -424 102 C-425.2419607 105.43927579 -426.55740284 108.25207819 -429 111 C-429.66 111 -430.32 111 -431 111 C-431.24105469 111.57878906 -431.48210937 112.15757812 -431.73046875 112.75390625 C-436.53241541 121.24965803 -447.05953836 125.48019509 -456 128 C-457.32 128 -458.64 128 -460 128 C-453.6609069 142.33186267 -442.11991365 155.88894764 -428.58203125 163.87890625 C-428.05996094 164.24886719 -427.53789062 164.61882812 -427 165 C-427 165.66 -427 166.32 -427 167 C-426.319375 167.2475 -425.63875 167.495 -424.9375 167.75 C-422 169 -422 169 -418.796875 170.88671875 C-415.0962142 173.02091354 -411.31816437 174.59621085 -407.3125 176.0625 C-406.61769531 176.31926514 -405.92289062 176.57603027 -405.20703125 176.84057617 C-378.95251227 186.33913778 -352.80861161 184.40026362 -327.375 173.4375 C-319.06454016 169.50096639 -312.17046943 164.66940498 -305 159 C-302 157 -302 157 -300.09765625 157.17578125 C-297.54117376 158.18028368 -295.63933711 159.54428384 -293.4375 161.1875 C-273.81741741 175.173244 -248.60283731 181.99076714 -224.53466797 178.65869141 C-211.33744474 176.44587559 -199.43885122 172.47632473 -187.5925293 166.28588867 C-183.19716496 164 -183.19716496 164 -181 164 C-181 163.34 -181 162.68 -181 162 C-179.66624564 161.08743123 -178.32601335 160.18364854 -176.96484375 159.3125 C-168.97997521 153.97867131 -158.13513936 146.40541807 -155 137 C-156.051875 136.979375 -157.10375 136.95875 -158.1875 136.9375 C-167.78872832 135.74374159 -179.4109808 128.55631246 -185.59375 121.0703125 C-186.78658154 119.42022886 -187.90244337 117.71493223 -189 116 C-187 115 -187 115 -184.2421875 115.7421875 C-182.01300622 116.49214408 -179.78383935 117.24214347 -177.5546875 117.9921875 C-169.73137934 120.21022432 -162.07026977 120.12815301 -154 120.0625 C-152.93910156 120.05798828 -151.87820313 120.05347656 -150.78515625 120.04882812 C-148.19004402 120.03713843 -145.59505291 120.02075276 -143 120 C-142.67 118.35 -142.34 116.7 -142 115 C-141.2265625 115.10699219 -140.453125 115.21398437 -139.65625 115.32421875 C-132.83493652 116.10934518 -128.09574202 116.1819074 -122 113 C-120.75669922 112.39478516 -120.75669922 112.39478516 -119.48828125 111.77734375 C-112.04200414 107.9639151 -105.5718342 103.12661658 -99 98 C-97.66906218 96.99681392 -96.33673852 95.99544358 -95 95 C-96.18565213 105.93703593 -102.01145857 114.08314095 -108 123 C-96.70147678 122.62467678 -86.00490908 121.75992451 -75 119 C-74.35853027 118.84047852 -73.71706055 118.68095703 -73.05615234 118.51660156 C-57.81645447 114.60436575 -44.87530956 107.29638263 -33 97 C-32.41476562 96.55785156 -31.82953125 96.11570312 -31.2265625 95.66015625 C-21.56413042 88.19785541 -14.21992128 76.85872512 -9 66 C-8.56171875 65.13117188 -8.1234375 64.26234375 -7.671875 63.3671875 C-4.18100353 56.15412174 -2.0092229 48.74060066 0 41 C0.34224609 39.84757812 0.34224609 39.84757812 0.69140625 38.671875 C4.08103095 26.25115231 1.86308183 12.5092637 0 0 Z " fill="#E7E7E7" transform="translate(899,304)"/>
<path d="M0 0 C2.11118008 6.33354023 -2.50780484 14.24233068 -5.25 20.0625 C-10.04931826 29.16515833 -17.96021705 42.40211095 -28.296875 45.7421875 C-28.85890625 45.82726562 -29.4209375 45.91234375 -30 46 C-30 46.66 -30 47.32 -30 48 C-48.36577481 58.21596224 -67.14758635 62.28980215 -87.91943359 56.46142578 C-103.84445495 51.57069726 -118.59072088 42.05398696 -128 28 C-128 27.34 -128 26.68 -128 26 C-126.93845703 26.433125 -126.93845703 26.433125 -125.85546875 26.875 C-123.02734686 27.98922586 -120.18876304 29.01692478 -117.3125 30 C-116.35988281 30.33 -115.40726563 30.66 -114.42578125 31 C-104.87048254 33.78923201 -95.81558305 34.36688689 -85.875 34.3125 C-85.18646942 34.31067719 -84.49793884 34.30885437 -83.7885437 34.30697632 C-73.53743456 34.26122774 -63.93033441 33.76215383 -54 31 C-53.05060547 30.75854248 -53.05060547 30.75854248 -52.08203125 30.51220703 C-31.75056465 25.31450155 -15.26808655 14.1499691 0 0 Z " fill="#E8E8E8" transform="translate(696,288)"/>
<path d="M0 0 C0.99 0.33 1.98 0.66 3 1 C2.34 4.3 1.68 7.6 1 11 C0.34 10.67 -0.32 10.34 -1 10 C-1.484375 8.22265625 -1.484375 8.22265625 -1.75 6.0625 C-1.84796875 5.35222656 -1.9459375 4.64195312 -2.046875 3.91015625 C-2 2 -2 2 0 0 Z " fill="#D6E2E4" transform="translate(932,396)"/>
<path d="M0 0 C2.4375 0.375 2.4375 0.375 5 1 C5.33 1.66 5.66 2.32 6 3 C-0.625 6 -0.625 6 -4 6 C-4 5.34 -4 4.68 -4 4 C-3.01 4 -2.02 4 -1 4 C-0.67 2.68 -0.34 1.36 0 0 Z " fill="#D4E1E5" transform="translate(871,469)"/>
<path d="M0 0 C2.64 0 5.28 0 8 0 C8.33 0.66 8.66 1.32 9 2 C5.7 2.66 2.4 3.32 -1 4 C-1.33 3.34 -1.66 2.68 -2 2 C-1.34 2 -0.68 2 0 2 C0 1.34 0 0.68 0 0 Z " fill="#CFDFE3" transform="translate(376,494)"/>
<path d="M0 0 C1.21816406 0.03480469 1.21816406 0.03480469 2.4609375 0.0703125 C3.68683594 0.09738281 3.68683594 0.09738281 4.9375 0.125 C5.87722656 0.15980469 5.87722656 0.15980469 6.8359375 0.1953125 C2.0859375 4.0703125 2.0859375 4.0703125 -0.1640625 5.1953125 C-0.1640625 4.5353125 -0.1640625 3.8753125 -0.1640625 3.1953125 C-1.4840625 2.8653125 -2.8040625 2.5353125 -4.1640625 2.1953125 C-2.1640625 0.1953125 -2.1640625 0.1953125 0 0 Z " fill="#D0E1E2" transform="translate(742.1640625,524.8046875)"/>
<path d="M0 0 C1.65 1.65 3.3 3.3 5 5 C4.67 5.99 4.34 6.98 4 8 C3.01 8.33 2.02 8.66 1 9 C-1.125 2.25 -1.125 2.25 0 0 Z " fill="#D1DFE3" transform="translate(915,320)"/>
<path d="M0 0 C0.75 1.5625 0.75 1.5625 1 4 C-0.13084437 6.50286409 -1.52139516 8.67007722 -3 11 C-3.66 10.67 -4.32 10.34 -5 10 C-3.66511872 6.40608886 -2.03977277 3.24509304 0 0 Z " fill="#DAF1F4" transform="translate(315,193)"/>
<path d="M0 0 C2.97 0.495 2.97 0.495 6 1 C6 1.99 6 2.98 6 4 C3.03 3.67 0.06 3.34 -3 3 C-2.01 2.67 -1.02 2.34 0 2 C0 1.34 0 0.68 0 0 Z " fill="#CDDEE4" transform="translate(503,533)"/>
<path d="M0 0 C1.9453125 0.2421875 1.9453125 0.2421875 4.125 0.875 C4.84945312 1.07867187 5.57390625 1.28234375 6.3203125 1.4921875 C6.87460938 1.65976562 7.42890625 1.82734375 8 2 C8 2.99 8 3.98 8 5 C4.7 4.01 1.4 3.02 -2 2 C-1.34 1.34 -0.68 0.68 0 0 Z " fill="#CDDFE5" transform="translate(167,486)"/>
<path d="M0 0 C0.66 0.99 1.32 1.98 2 3 C1.01 4.98 0.02 6.96 -1 9 C-1.66 8.67 -2.32 8.34 -3 8 C-1.125 1.125 -1.125 1.125 0 0 Z " fill="#D4E2E4" transform="translate(781,481)"/>
<path d="M0 0 C1.32 0.66 2.64 1.32 4 2 C3.67 3.65 3.34 5.3 3 7 C2.01 6.67 1.02 6.34 0 6 C0.33 5.01 0.66 4.02 1 3 C0.34 3 -0.32 3 -1 3 C-0.67 2.01 -0.34 1.02 0 0 Z " fill="#DBE3E4" transform="translate(282,469)"/>
<path d="M0 0 C1.5 1.375 1.5 1.375 3 3 C3 3.66 3 4.32 3 5 C3.99 4.67 4.98 4.34 6 4 C5.67 4.99 5.34 5.98 5 7 C1.535 5.02 1.535 5.02 -2 3 C-1.34 2.01 -0.68 1.02 0 0 Z " fill="#CBDDE3" transform="translate(461,514)"/>
<path d="M0 0 C1.32 0.66 2.64 1.32 4 2 C0.25 5 0.25 5 -2 5 C-2.33 4.01 -2.66 3.02 -3 2 C-2.01 1.34 -1.02 0.68 0 0 Z " fill="#C6DBE1" transform="translate(276,473)"/>
<path d="M0 0 C-1.1875 1.5625 -1.1875 1.5625 -3 3 C-5.6875 2.6875 -5.6875 2.6875 -8 2 C-5.14066998 -0.85933002 -3.8625627 -1.2875209 0 0 Z " fill="#DDF1F4" transform="translate(539,83)"/>
<path d="M0 0 C0.99 0.33 1.98 0.66 3 1 C3 1.99 3 2.98 3 4 C1.02 4.66 -0.96 5.32 -3 6 C-3 5.34 -3 4.68 -3 4 C-2.01 4 -1.02 4 0 4 C0 2.68 0 1.36 0 0 Z " fill="#CEDFE2" transform="translate(884,463)"/>
<path d="M0 0 C0.33 0 0.66 0 1 0 C1 3.63 1 7.26 1 11 C0.67 11 0.34 11 0 11 C0 7.37 0 3.74 0 0 Z " fill="#8CD2E4" transform="translate(945,89)"/>
<path d="M0 0 C1.98 0 3.96 0 6 0 C6 0.33 6 0.66 6 1 C4.02 1 2.04 1 0 1 C0 0.67 0 0.34 0 0 Z " fill="#AFD3D9" transform="translate(1004,162)"/>
<path d="M0 0 C1.65 0 3.3 0 5 0 C5 0.33 5 0.66 5 1 C3.35 1 1.7 1 0 1 C0 0.67 0 0.34 0 0 Z " fill="#AED2DF" transform="translate(1019,162)"/>
<path d="M0 0 C0.99 0.495 0.99 0.495 2 1 C1.67 1.66 1.34 2.32 1 3 C0.67 2.01 0.34 1.02 0 0 Z " fill="#A2D5DC" transform="translate(1041,168)"/>
<path d="M0 0 C4 1 4 1 4 1 Z " fill="#A6CFD7" transform="translate(998,161)"/>
<path d="M0 0 C0.99 0.33 1.98 0.66 3 1 C2.01 1 1.02 1 0 1 C0 0.67 0 0.34 0 0 Z " fill="#A3D0DC" transform="translate(968,145)"/>
<path d="M0 0 C0.99 0.495 0.99 0.495 2 1 C1.67 1.66 1.34 2.32 1 3 C0.67 2.01 0.34 1.02 0 0 Z " fill="#A3D2DB" transform="translate(964,140)"/>
<path d="M0 0 C0.99 0.495 0.99 0.495 2 1 C1.67 1.66 1.34 2.32 1 3 C0.67 2.01 0.34 1.02 0 0 Z " fill="#A3D3E1" transform="translate(958,133)"/>
<path d="M0 0 C1 4 1 4 1 4 Z " fill="#AEE3E8" transform="translate(946,81)"/>
<path d="M0 0 C0.66 0.66 1.32 1.32 2 2 C1.34 2 0.68 2 0 2 C0 1.34 0 0.68 0 0 Z " fill="#98CDDA" transform="translate(1038,164)"/>
<path d="M0 0 C3 1 3 1 3 1 Z " fill="#A5D0E2" transform="translate(1027,161)"/>
<path d="M0 0 C3 1 3 1 3 1 Z " fill="#A9D1DA" transform="translate(995,160)"/>
<path d="M0 0 C3 1 3 1 3 1 Z " fill="#A7D5DA" transform="translate(992,159)"/>
<path d="M0 0 C0.66 0.66 1.32 1.32 2 2 C1.34 2 0.68 2 0 2 C0 1.34 0 0.68 0 0 Z " fill="#AFD7DE" transform="translate(962,138)"/>
<path d="" fill="#A7D1DA" transform="translate(0,0)"/>
<path d="" fill="#B1E2ED" transform="translate(0,0)"/>
<path d="" fill="#A8E0E4" transform="translate(0,0)"/>
<path d="M0 0 C3 1 3 1 3 1 Z " fill="#B0E3E9" transform="translate(999,26)"/>
<path d="" fill="#ABDFEA" transform="translate(0,0)"/>
<path d="" fill="#A2CCE0" transform="translate(0,0)"/>
<path d="M0 0 C2 1 2 1 2 1 Z " fill="#96CDD9" transform="translate(1032,160)"/>
<path d="M0 0 C2 1 2 1 2 1 Z " fill="#D6E0F0" transform="translate(1034,159)"/>
<path d="M0 0 C2 1 2 1 2 1 Z " fill="#B0D5E5" transform="translate(987,157)"/>
<path d="M0 0 C2 1 2 1 2 1 Z " fill="#BBDCE5" transform="translate(985,156)"/>
<path d="M0 0 C2 1 2 1 2 1 Z " fill="#B4DBE3" transform="translate(981,154)"/>
<path d="M0 0 C2 1 2 1 2 1 Z " fill="#B7D6E1" transform="translate(976,151)"/>
<path d="M0 0 C2 1 2 1 2 1 Z " fill="#A7D4E3" transform="translate(973,149)"/>
<path d="M0 0 C2 1 2 1 2 1 Z " fill="#A7D6DF" transform="translate(966,143)"/>
<path d="" fill="#96CBD4" transform="translate(0,0)"/>
<path d="" fill="#B7DBE3" transform="translate(0,0)"/>
<path d="" fill="#9DD0E3" transform="translate(0,0)"/>
<path d="" fill="#B7D9E3" transform="translate(0,0)"/>
<path d="" fill="#A3D4DE" transform="translate(0,0)"/>
<path d="" fill="#B2E1EF" transform="translate(0,0)"/>
<path d="" fill="#AADCE6" transform="translate(0,0)"/>
<path d="" fill="#ADDFEC" transform="translate(0,0)"/>
<path d="" fill="#B3E7F0" transform="translate(0,0)"/>
<path d="M0 0 C2 1 2 1 2 1 Z " fill="#A9E0EC" transform="translate(977,35)"/>
<path d="M0 0 C2 1 2 1 2 1 Z " fill="#A5DDEC" transform="translate(989,29)"/>
<path d="M0 0 C2 1 2 1 2 1 Z " fill="#AEDEE3" transform="translate(992,28)"/>
<path d="M0 0 C2 1 2 1 2 1 Z " fill="#A5E0EE" transform="translate(995,27)"/>
<path d="M0 0 C2 1 2 1 2 1 Z " fill="#94D4EA" transform="translate(1004,25)"/>
<path d="" fill="#AADDEB" transform="translate(0,0)"/>
<path d="" fill="#B7E6EE" transform="translate(0,0)"/>
<path d="" fill="#A7CDDA" transform="translate(0,0)"/>
<path d="" fill="#9FD1DA" transform="translate(0,0)"/>
<path d="" fill="#95CBD5" transform="translate(0,0)"/>
<path d="" fill="#DDEDE2" transform="translate(0,0)"/>
<path d="" fill="#DAE6E2" transform="translate(0,0)"/>
<path d="" fill="#ACD4E0" transform="translate(0,0)"/>
<path d="" fill="#98CDDD" transform="translate(0,0)"/>
<path d="" fill="#CAE0ED" transform="translate(0,0)"/>
<path d="" fill="#B6D8E4" transform="translate(0,0)"/>
<path d="" fill="#B1DAEC" transform="translate(0,0)"/>
<path d="" fill="#98D1E2" transform="translate(0,0)"/>
<path d="" fill="#E2E8DA" transform="translate(0,0)"/>
<path d="" fill="#B2D4DE" transform="translate(0,0)"/>
<path d="" fill="#BBDBE6" transform="translate(0,0)"/>
<path d="" fill="#9FD1DC" transform="translate(0,0)"/>
<path d="" fill="#94CEE4" transform="translate(0,0)"/>
<path d="" fill="#AED2E0" transform="translate(0,0)"/>
<path d="" fill="#DEE7E2" transform="translate(0,0)"/>
<path d="" fill="#D1D5D8" transform="translate(0,0)"/>
<path d="" fill="#B4D8E8" transform="translate(0,0)"/>
<path d="" fill="#CAE5EC" transform="translate(0,0)"/>
<path d="" fill="#95D8DE" transform="translate(0,0)"/>
<path d="" fill="#9BDAEB" transform="translate(0,0)"/>
<path d="" fill="#88D3D8" transform="translate(0,0)"/>
<path d="" fill="#D3EAF8" transform="translate(0,0)"/>
<path d="" fill="#A5E0EE" transform="translate(0,0)"/>
<path d="" fill="#A2DDE5" transform="translate(0,0)"/>
<path d="" fill="#CCEBEE" transform="translate(0,0)"/>
<path d="" fill="#82D6E0" transform="translate(0,0)"/>
<path d="" fill="#96D6DF" transform="translate(0,0)"/>
<path d="" fill="#B0E3F4" transform="translate(0,0)"/>
<path d="" fill="#B7DEED" transform="translate(0,0)"/>
<path d="" fill="#BBE5F3" transform="translate(0,0)"/>
<path d="" fill="#BBE5F3" transform="translate(0,0)"/>
<path d="" fill="#A3EFFF" transform="translate(0,0)"/>
<path d="" fill="#95D4E5" transform="translate(0,0)"/>
<path d="" fill="#92D3E9" transform="translate(0,0)"/>
<path d="" fill="#CDEAFA" transform="translate(0,0)"/>
<path d="" fill="#A6E0EE" transform="translate(0,0)"/>
<path d="" fill="#C4DEDB" transform="translate(0,0)"/>
<path d="" fill="#9ADCEA" transform="translate(0,0)"/>
<path d="" fill="#ADDFE6" transform="translate(0,0)"/>
<path d="" fill="#B7E6F0" transform="translate(0,0)"/>
<path d="" fill="#AFE7F4" transform="translate(0,0)"/>
<path d="" fill="#A4DDEE" transform="translate(0,0)"/>
<path d="" fill="#AEE2EF" transform="translate(0,0)"/>
<path d="" fill="#AFDFED" transform="translate(0,0)"/>
<path d="" fill="#BEE5F4" transform="translate(0,0)"/>
<path d="" fill="#DBEDEF" transform="translate(0,0)"/>
<path d="" fill="#8FD8E7" transform="translate(0,0)"/>
</svg>
